<svg width="36" height="44" viewBox="0 0 36 44" fill="none" xmlns="http://www.w3.org/2000/svg">
<path d="M28.6355 28.7058C28.0993 28.8641 27.3122 28.8819 26.4683 28.7595C25.5625 28.6282 24.6386 28.3513 23.7306 27.9433C25.3499 27.7077 26.6061 27.7803 27.6806 28.161C27.9351 28.2512 28.3532 28.4923 28.6355 28.7058ZM19.6007 27.2205C19.5349 27.2384 19.47 27.2554 19.4054 27.2733C18.9697 27.3919 18.5457 27.5076 18.1372 27.6105L17.5863 27.7503C16.4782 28.0306 15.3452 28.3171 14.2261 28.6582C14.6514 27.6327 15.0465 26.5958 15.4334 25.582C15.7198 24.8316 16.0123 24.065 16.3148 23.3083C16.4683 23.5618 16.6284 23.8153 16.7951 24.0695C17.5543 25.2259 18.5087 26.295 19.6007 27.2205ZM16.782 15.6559C16.8538 16.9213 16.5808 18.1387 16.1803 19.3065C15.6869 17.8625 15.457 16.2678 16.0738 14.9804C16.232 14.6503 16.3616 14.4739 16.4456 14.3818C16.5754 14.5823 16.7461 15.0306 16.782 15.6559ZM10.9968 31.6859C10.7197 32.1818 10.4367 32.646 10.1467 33.0844C9.44689 34.139 8.30235 35.2683 7.71437 35.2683C7.65651 35.2683 7.5865 35.259 7.48419 35.1509C7.41833 35.0819 7.40778 35.0324 7.41097 34.9648C7.43079 34.5771 7.94456 33.8865 8.68882 33.2462C9.36435 32.6653 10.1279 32.1488 10.9968 31.6859ZM30.5077 28.7607C30.4178 27.4691 28.2436 26.6405 28.2221 26.6328C27.3816 26.3348 26.4685 26.19 25.4307 26.19C24.3199 26.19 23.1222 26.3507 21.584 26.7101C20.2154 25.7399 19.0331 24.5253 18.1498 23.1806C17.7598 22.5865 17.4091 21.9935 17.1034 21.4143C17.8497 19.6299 18.5216 17.7114 18.3995 15.5627C18.3011 13.8398 17.5242 12.6825 16.4676 12.6825C15.7428 12.6825 15.1188 13.2193 14.6114 14.2794C13.7062 16.1686 13.9441 18.5858 15.3182 21.4702C14.8233 22.6326 14.3635 23.8377 13.9185 25.0042C13.3647 26.4548 12.7942 27.9513 12.1511 29.375C10.3477 30.0885 8.86615 30.9539 7.63145 32.0163C6.82259 32.711 5.84748 33.7731 5.79182 34.8818C5.76465 35.4039 5.94368 35.8828 6.30751 36.2665C6.69404 36.6738 7.17964 36.8883 7.71359 36.8889C9.4771 36.8889 11.1744 34.466 11.4964 33.98C12.1444 33.0032 12.7509 31.9136 13.3453 30.6569C14.8421 30.1159 16.4374 29.7121 17.9835 29.3218L18.5373 29.1811C18.9535 29.0753 19.3861 28.9583 19.8299 28.8368C20.2995 28.7099 20.7826 28.5782 21.2736 28.4532C22.8613 29.4628 24.5686 30.1214 26.2336 30.3631C27.6361 30.5671 28.8817 30.4488 29.7248 30.0092C30.4835 29.6141 30.5253 29.0044 30.5077 28.7607ZM33.9231 39.8671C33.9231 42.2325 31.8382 42.3784 31.4176 42.3831H4.51937C2.16249 42.3831 2.02057 40.284 2.01607 39.8671L2.01575 4.13206C2.01575 1.76429 4.10442 1.62074 4.51905 1.61599H22.6893L22.699 1.62558V8.71636C22.699 10.1394 23.5593 12.8336 26.8174 12.8336H33.8624L33.9229 12.894L33.9231 39.8671ZM32.2529 11.2174H26.8186C24.4624 11.2174 24.3199 9.12966 24.3167 8.71659V3.24838L32.2529 11.2174ZM35.5392 39.8671V12.2273L24.3167 0.958124V0.905693H24.263L23.3616 0H4.51942C3.09452 0 0.400024 0.86387 0.400024 4.13282V39.8679C0.400024 41.297 1.26128 44 4.51942 44H31.4201C32.8447 43.9997 35.5392 43.1357 35.5392 39.8671Z" fill="#9E5FC4"/>
</svg>
