<svg xmlns="http://www.w3.org/2000/svg">

    <symbol xmlns="http://www.w3.org/2000/svg" width="19" height="16" viewBox="0 0 19 16" id="icon-email">
        <path d="M17.5 0.5C17.9603 0.5 18.3333 0.8731 18.3333 1.33333V14.6722C18.3333 15.1293 17.9539 15.5 17.5068 15.5H2.49317C2.03671 15.5 1.66667 15.1292 1.66667 14.6722V13.8333H16.6667V4.08333L10 10.0833L1.66667 2.58333V1.33333C1.66667 0.8731 2.03977 0.5 2.5 0.5H17.5ZM6.66667 10.5V12.1667H0V10.5H6.66667ZM4.16667 6.33333V8H0V6.33333H4.16667ZM16.3049 2.16667H3.69512L10 7.84108L16.3049 2.16667Z" fill="white" fill-opacity="0.4" />
    </symbol>

    <symbol xmlns="http://www.w3.org/2000/svg" width="20" height="20" viewBox="0 0 20 20" id="icon-copyrite">
        <path d="M14.2877 7.42773C13.413 5.97351 11.8195 5 10 5C7.23999 5 5 7.23999 5 10C5 12.76 7.23999 15 10 15C11.8195 15 13.413 14.0265 14.2877 12.5723L12.5729 11.5442C12.0483 12.4166 11.0927 13 10 13C8.3425 13 7 11.6575 7 10C7 8.3425 8.3425 7 10 7C11.093 7 12.0491 7.58386 12.5735 8.4568L14.2877 7.42773ZM20 10C20 4.47998 15.52 0 10 0C4.47998 0 0 4.47998 0 10C0 15.52 4.47998 20 10 20C15.52 20 20 15.52 20 10ZM2 10C2 5.57996 5.57996 2 10 2C14.42 2 18 5.57996 18 10C18 14.42 14.42 18 10 18C5.57996 18 2 14.42 2 10Z" fill="white" fill-opacity="0.8"/>
    </symbol>

</svg>
