<svg width="40" height="20" viewBox="0 0 40 20" fill="none" xmlns="http://www.w3.org/2000/svg">
<path d="M12.1923 0.0947554C9.34323 0.106943 6.70322 0.685138 5.41602 1.08804C5.41602 1.08804 17.0925 3.06952 18.0638 11.1301C9.19089 -1.66278 -0.487305 13.8089 -0.487305 13.8089C1.53054 13.2796 7.30863 11.7084 11.167 12.3712C13.8068 12.8247 16.3802 15.218 16.2691 15.1879C9.978 16.7357 -0.0164608 44.7344 1.68065 47.0082C3.19393 48.7469 4.70884 48.1538 6.22232 47.2718C6.97145 41.338 12.8176 15.3034 19.9713 17.4051C19.9724 17.4054 19.9734 17.4048 19.9744 17.4051C20.5767 17.6112 21.1464 17.9728 21.1773 18.5253C21.2362 19.5778 20.5567 21.298 20.7172 22.4926C21.0891 25.2649 21.632 26.2291 22.4214 27.1963C24.3068 26.1365 26.1108 22.3155 26.4839 20.3343C28.1733 21.0741 30.889 22.7876 33.1045 29.1513C34.2627 23.1879 32.5924 18.4842 27.1093 16.3955C29.4838 15.3692 39.819 20.5626 41.0805 23.4572C42.3079 18.2378 33.6262 11.8509 26.3983 12.1903C27.784 11.8288 29.3069 12.2513 30.756 11.1842C32.7005 9.75233 34.9682 8.51916 37.0813 7.19458C29.9747 4.10353 23.4165 5.62981 22.9547 8.82923C22.5919 1.72839 17.0814 0.0741381 12.1922 0.0948569L12.1923 0.0947554Z" fill="white"/>
</svg>
