<svg width="88" height="13" viewBox="0 0 88 13" fill="none" xmlns="http://www.w3.org/2000/svg">
<path d="M87.5679 0.269958V12H84.9839V0.269958L87.5679 0.269958Z" fill="white"/>
<path d="M79.0998 0.269958V9.04196C79.0998 9.32529 79.1791 9.54063 79.3378 9.68796C79.4964 9.83529 79.7231 9.90896 80.0178 9.90896L84.1148 9.90896L84.2338 11.864C83.4291 11.9546 82.5848 12.0056 81.7008 12.017C80.8281 12.0396 79.9554 12.051 79.0828 12.051C78.2328 12.051 77.5868 11.8243 77.1448 11.371C76.7141 10.9063 76.4988 10.317 76.4988 9.60296V0.269958L79.0998 0.269958Z" fill="white"/>
<path d="M71.7163 0.269958C71.9317 0.269958 72.1187 0.332292 72.2774 0.456959C72.4474 0.581626 72.5607 0.745959 72.6173 0.949959L76.0173 12H73.3653L70.9684 3.38096C70.923 3.18829 70.8777 2.99563 70.8324 2.80296C70.787 2.59896 70.7473 2.40629 70.7133 2.22496H70.2543C70.2203 2.40629 70.1807 2.59896 70.1354 2.80296C70.1014 2.99563 70.056 3.18829 69.9994 3.38096L67.6023 12H64.9333L68.3503 0.949959C68.407 0.745959 68.5147 0.581626 68.6733 0.456959C68.8433 0.332292 69.036 0.269958 69.2514 0.269958L71.7163 0.269958ZM73.5183 6.95096V8.90596L67.4324 8.90596V6.95096L73.5183 6.95096Z" fill="white"/>
<path d="M60.3661 0.133972C61.3861 0.133972 62.1964 0.224639 62.7971 0.405972C63.4091 0.575971 63.8511 0.881971 64.1231 1.32397C64.3951 1.76597 64.5311 2.38931 64.5311 3.19397C64.5311 4.03264 64.3668 4.67297 64.0381 5.11497C63.7208 5.54564 63.1938 5.79497 62.4571 5.86297V5.96497C63.3638 6.04431 63.9984 6.35031 64.3611 6.88297C64.7238 7.4043 64.9051 8.13531 64.9051 9.07597C64.9051 9.88064 64.7634 10.504 64.4801 10.946C64.2081 11.388 63.7774 11.6996 63.1881 11.881C62.6101 12.051 61.8508 12.136 60.9101 12.136C60.1508 12.136 59.4878 12.1303 58.9211 12.119C58.3658 12.119 57.8501 12.1076 57.3741 12.085C56.8981 12.0623 56.4108 12.034 55.9121 12L56.1671 10.198C56.4391 10.2093 56.9604 10.2206 57.7311 10.232C58.5131 10.2433 59.4198 10.249 60.4511 10.249C60.9271 10.249 61.3011 10.2036 61.5731 10.113C61.8451 10.0223 62.0321 9.85797 62.1341 9.61997C62.2474 9.37064 62.3041 9.01931 62.3041 8.56597C62.3041 8.07864 62.2474 7.71031 62.1341 7.46097C62.0208 7.2003 61.8224 7.01897 61.5391 6.91697C61.2671 6.81497 60.8874 6.75831 60.4001 6.74697L56.1501 6.74697V5.09797L60.3661 5.09797C60.7854 5.08664 61.1141 5.04131 61.3521 4.96197C61.6014 4.88264 61.7771 4.72964 61.8791 4.50297C61.9811 4.27631 62.0321 3.95897 62.0321 3.55097C62.0321 3.13164 61.9754 2.81431 61.8621 2.59897C61.7601 2.37231 61.5788 2.21931 61.3181 2.13997C61.0574 2.06064 60.6948 2.02097 60.2301 2.02097C59.5954 2.02097 59.0344 2.02097 58.5471 2.02097C58.0598 2.02097 57.6234 2.02664 57.2381 2.03797C56.8528 2.03797 56.4958 2.04931 56.1671 2.07197L55.9121 0.269971C56.3654 0.224639 56.8018 0.196305 57.2211 0.184971C57.6518 0.162305 58.1164 0.150972 58.6151 0.150972C59.1138 0.139639 59.6974 0.133972 60.3661 0.133972ZM58.4621 0.269971V12H55.9121V0.269971L58.4621 0.269971Z" fill="white"/>
<path d="M51.0957 0.269958C51.3111 0.269958 51.4981 0.332292 51.6567 0.456959C51.8267 0.581626 51.9401 0.745959 51.9967 0.949959L55.3967 12H52.7447L50.3477 3.38096C50.3024 3.18829 50.2571 2.99563 50.2117 2.80296C50.1664 2.59896 50.1267 2.40629 50.0927 2.22496H49.6337C49.5997 2.40629 49.5601 2.59896 49.5147 2.80296C49.4807 2.99563 49.4354 3.18829 49.3787 3.38096L46.9817 12H44.3127L47.7297 0.949959C47.7864 0.745959 47.8941 0.581626 48.0527 0.456959C48.2227 0.332292 48.4154 0.269958 48.6307 0.269958L51.0957 0.269958ZM52.8977 6.95096V8.90596L46.8117 8.90596V6.95096L52.8977 6.95096Z" fill="white"/>
<path d="M43.8252 0.269958V11.065C43.8252 11.6883 43.5135 12 42.8902 12H41.4622C41.1789 12 40.9635 11.9376 40.8162 11.813C40.6689 11.677 40.5329 11.4786 40.4082 11.218L37.1612 5.06396C37.0252 4.80329 36.8892 4.51429 36.7532 4.19696C36.6285 3.87963 36.5209 3.57363 36.4302 3.27896H36.2432C36.2772 3.58496 36.3055 3.89663 36.3282 4.21396C36.3509 4.51996 36.3622 4.82596 36.3622 5.13196V12H33.8972V1.20496C33.8972 0.581625 34.2145 0.269958 34.8492 0.269958L36.2602 0.269958C36.5322 0.269958 36.7362 0.337959 36.8722 0.473959C37.0195 0.598625 37.1612 0.791292 37.2972 1.05196L40.4422 7.01896C40.5782 7.27963 40.7199 7.56863 40.8672 7.88596C41.0146 8.20329 41.1562 8.53196 41.2922 8.87196H41.4962C41.4622 8.53196 41.4339 8.20329 41.4112 7.88596C41.3999 7.55729 41.3942 7.23429 41.3942 6.91696L41.3772 0.269958L43.8252 0.269958Z" fill="white"/>
<path d="M32.2144 0.269958V12H29.6304L29.6304 0.269958L32.2144 0.269958Z" fill="white"/>
<path d="M23.746 0.269958V9.04196C23.746 9.32529 23.8254 9.54063 23.984 9.68796C24.1427 9.83529 24.3694 9.90896 24.664 9.90896L28.761 9.90896L28.88 11.864C28.0754 11.9546 27.231 12.0056 26.347 12.017C25.4744 12.0396 24.6017 12.051 23.729 12.051C22.879 12.051 22.233 11.8243 21.791 11.371C21.3604 10.9063 21.145 10.317 21.145 9.60296V0.269958L23.746 0.269958Z" fill="white"/>
<path d="M16.3626 0.269958C16.5779 0.269958 16.7649 0.332292 16.9236 0.456959C17.0936 0.581626 17.2069 0.745959 17.2636 0.949959L20.6636 12H18.0116L15.6146 3.38096C15.5693 3.18829 15.5239 2.99563 15.4786 2.80296C15.4333 2.59896 15.3936 2.40629 15.3596 2.22496H14.9006C14.8666 2.40629 14.8269 2.59896 14.7816 2.80296C14.7476 2.99563 14.7023 3.18829 14.6456 3.38096L12.2486 12H9.57959L12.9966 0.949959C13.0533 0.745959 13.1609 0.581626 13.3196 0.456959C13.4896 0.332292 13.6823 0.269958 13.8976 0.269958L16.3626 0.269958ZM18.1646 6.95096V8.90596L12.0786 8.90596L12.0786 6.95096L18.1646 6.95096Z" fill="white"/>
<path d="M10.7439 0.269958L7.5479 11.286C7.49123 11.49 7.3779 11.66 7.2079 11.796C7.04923 11.932 6.85656 12 6.6299 12L4.2499 12C4.0119 12 3.8079 11.932 3.6379 11.796C3.47923 11.66 3.37723 11.49 3.3319 11.286L0.118896 0.269958L2.8049 0.269958L4.9469 8.73596C4.99223 8.95129 5.03756 9.17229 5.0829 9.39896C5.13956 9.61429 5.1849 9.82963 5.2189 10.045L5.6609 10.045C5.6949 9.82963 5.73456 9.60863 5.7799 9.38196C5.83656 9.15529 5.89323 8.93429 5.9499 8.71896L8.0749 0.269958L10.7439 0.269958Z" fill="white"/>
</svg>
