<svg width="160" height="48" viewBox="0 0 160 48" fill="none" xmlns="http://www.w3.org/2000/svg">
<path d="M154.074 0H5.92593C2.65313 0 0 2.68629 0 6V42C0 45.3137 2.65313 48 5.92593 48H154.074C157.347 48 160 45.3137 160 42V6C160 2.68629 157.347 0 154.074 0Z" fill="black"/>
<path d="M154.074 0.96C155.394 0.96 156.66 1.491 157.594 2.43618C158.527 3.38137 159.052 4.66331 159.052 6V42C159.052 43.3367 158.527 44.6186 157.594 45.5638C156.66 46.509 155.394 47.04 154.074 47.04H5.92593C4.60574 47.04 3.33962 46.509 2.40611 45.5638C1.47259 44.6186 0.948148 43.3367 0.948148 42V6C0.948148 4.66331 1.47259 3.38137 2.40611 2.43618C3.33962 1.491 4.60574 0.96 5.92593 0.96H154.074ZM154.074 0H5.92593C4.35427 0 2.84699 0.632141 1.73566 1.75736C0.624337 2.88258 0 4.4087 0 6V42C0 43.5913 0.624337 45.1174 1.73566 46.2426C2.84699 47.3679 4.35427 48 5.92593 48H154.074C155.646 48 157.153 47.3679 158.264 46.2426C159.376 45.1174 160 43.5913 160 42V6C160 4.4087 159.376 2.88258 158.264 1.75736C157.153 0.632141 155.646 0 154.074 0Z" fill="#A6A6A6"/>
<path d="M80.7586 26.1C79.7634 26.1047 78.7919 26.4079 77.9667 26.9711C77.1415 27.5344 76.4996 28.3326 76.122 29.2649C75.7444 30.1972 75.648 31.2219 75.845 32.2096C76.042 33.1973 76.5236 34.1038 77.229 34.8146C77.9344 35.5255 78.8319 36.0088 79.8084 36.2037C80.7848 36.3985 81.7964 36.2961 82.7154 35.9094C83.6344 35.5227 84.4197 34.869 84.9721 34.0309C85.5246 33.1927 85.8194 32.2076 85.8194 31.2C85.8291 30.5255 85.7046 29.856 85.4534 29.2312C85.2022 28.6064 84.8294 28.0392 84.3572 27.5634C83.885 27.0875 83.323 26.7127 82.7048 26.4613C82.0866 26.2099 81.4247 26.087 80.7586 26.1ZM80.7586 34.296C80.1466 34.3393 79.5358 34.1952 79.0057 33.8824C78.4756 33.5697 78.0507 33.1026 77.7862 32.5421C77.5217 31.9816 77.4299 31.3534 77.5227 30.7394C77.6155 30.1253 77.8886 29.5537 78.3065 29.0988C78.7244 28.644 79.2677 28.3269 79.8659 28.1889C80.4641 28.0509 81.0895 28.0983 81.6608 28.3249C82.2321 28.5515 82.7228 28.9469 83.0692 29.4596C83.4156 29.9724 83.6016 30.5788 83.6031 31.2C83.6222 31.5936 83.5632 31.9871 83.4297 32.3573C83.2962 32.7275 83.0909 33.0668 82.8258 33.3554C82.5607 33.6439 82.2412 33.8758 81.8862 34.0374C81.5311 34.1989 81.1478 34.2868 80.7586 34.296ZM69.7246 26.1C68.7289 26.1024 67.7562 26.4035 66.9294 26.9653C66.1026 27.5272 65.4588 28.3245 65.0794 29.2566C64.7 30.1887 64.6019 31.2138 64.7976 32.2023C64.9933 33.1908 65.474 34.0984 66.1789 34.8104C66.8838 35.5225 67.7813 36.007 68.7581 36.2029C69.7349 36.3987 70.747 36.297 71.6667 35.9106C72.5864 35.5243 73.3724 34.8706 73.9254 34.0321C74.4783 33.1937 74.7735 32.2082 74.7735 31.2C74.7831 30.5255 74.6587 29.856 74.4074 29.2312C74.1562 28.6064 73.7834 28.0392 73.3112 27.5634C72.8391 27.0875 72.2771 26.7127 71.6589 26.4613C71.0407 26.2099 70.3788 26.087 69.7127 26.1H69.7246ZM69.7246 34.296C69.1122 34.3418 68.5004 34.1998 67.9689 33.8886C67.4373 33.5775 67.0106 33.1115 66.7443 32.5513C66.4779 31.9911 66.3843 31.3628 66.4756 30.748C66.5669 30.1332 66.8389 29.5605 67.2562 29.1044C67.6735 28.6483 68.2167 28.33 68.8151 28.1909C69.4136 28.0518 70.0395 28.0983 70.6115 28.3244C71.1835 28.5505 71.675 28.9457 72.022 29.4586C72.369 29.9715 72.5555 30.5783 72.5572 31.2C72.5763 31.5936 72.5173 31.9871 72.3838 32.3573C72.2503 32.7275 72.045 33.0668 71.7799 33.3554C71.5147 33.6439 71.1953 33.8758 70.8402 34.0374C70.4852 34.1989 70.1018 34.2868 69.7127 34.296H69.7246ZM56.5809 27.672V29.832H61.7009C61.6206 30.8493 61.2029 31.8093 60.5157 32.556C60.0034 33.0843 59.3877 33.4981 58.7079 33.7709C58.0282 34.0437 57.2996 34.1695 56.569 34.14C55.0602 34.14 53.6132 33.5331 52.5464 32.4529C51.4795 31.3727 50.8801 29.9076 50.8801 28.38C50.8801 26.8523 51.4795 25.3873 52.5464 24.307C53.6132 23.2268 55.0602 22.62 56.569 22.62C58.0123 22.5961 59.4061 23.1528 60.4446 24.168L61.9498 22.644C61.2487 21.9252 60.4123 21.3562 59.49 20.9708C58.5678 20.5853 57.5785 20.3912 56.5809 20.4C55.5272 20.3585 54.4762 20.5327 53.4906 20.9123C52.5051 21.292 51.6054 21.8691 50.8455 22.6092C50.0855 23.3493 49.4809 24.2371 49.068 25.2194C48.655 26.2017 48.4421 27.2584 48.4421 28.326C48.4421 29.3936 48.655 30.4502 49.068 31.4325C49.4809 32.4149 50.0855 33.3027 50.8455 34.0428C51.6054 34.7829 52.5051 35.36 53.4906 35.7396C54.4762 36.1192 55.5272 36.2935 56.5809 36.252C57.5953 36.2984 58.6078 36.1243 59.5503 35.7414C60.4927 35.3584 61.3432 34.7756 62.0446 34.032C63.2863 32.6507 63.9492 30.8349 63.8935 28.968C63.8973 28.5132 63.8576 28.059 63.7749 27.612L56.5809 27.672ZM110.282 29.352C109.973 28.4313 109.395 27.6273 108.624 27.0466C107.854 26.4659 106.927 26.1358 105.968 26.1C105.319 26.0987 104.678 26.2321 104.082 26.4918C103.487 26.7516 102.95 27.1322 102.506 27.6102C102.062 28.0882 101.719 28.6534 101.499 29.2708C101.279 29.8883 101.186 30.5449 101.227 31.2C101.212 31.8707 101.332 32.5374 101.577 33.1604C101.823 33.7834 102.191 34.3498 102.657 34.8259C103.124 35.3019 103.681 35.6778 104.295 35.9311C104.908 36.1844 105.566 36.3098 106.228 36.3C107.057 36.3045 107.875 36.1008 108.607 35.7071C109.339 35.3134 109.963 34.7419 110.424 34.044L108.705 32.844C108.449 33.2769 108.086 33.635 107.652 33.8832C107.217 34.1314 106.727 34.2613 106.228 34.26C105.715 34.2798 105.208 34.1428 104.772 33.8667C104.337 33.5906 103.993 33.1883 103.787 32.712L110.531 29.892L110.282 29.352ZM103.408 31.056C103.384 30.6848 103.433 30.3125 103.553 29.9609C103.673 29.6093 103.861 29.2854 104.106 29.0083C104.351 28.7311 104.648 28.5063 104.98 28.3469C105.312 28.1875 105.672 28.0967 106.039 28.08C106.421 28.0545 106.802 28.1432 107.135 28.3352C107.468 28.5272 107.738 28.814 107.911 29.16L103.408 31.056ZM97.932 36H100.148V21H97.932V36ZM94.3053 27.24H94.2224C93.8883 26.8619 93.4791 26.5595 93.0216 26.3527C92.5641 26.1459 92.0686 26.0393 91.5675 26.04C90.2724 26.1036 89.051 26.6693 88.1565 27.6199C87.2621 28.5705 86.7632 29.8331 86.7632 31.146C86.7632 32.4589 87.2621 33.7215 88.1565 34.6721C89.051 35.6227 90.2724 36.1884 91.5675 36.252C92.0698 36.2605 92.5678 36.1575 93.0264 35.9502C93.4851 35.7429 93.8933 35.4363 94.2224 35.052H94.2935V35.784C94.2935 37.74 93.2624 38.784 91.6031 38.784C91.0505 38.7709 90.5142 38.5916 90.0625 38.2689C89.6108 37.9462 89.2642 37.4948 89.0668 36.972L87.1349 37.788C87.4986 38.6836 88.1182 39.4488 88.9143 39.9855C89.7104 40.5221 90.6467 40.8058 91.6031 40.8C94.1987 40.8 96.3438 39.252 96.3438 35.484V26.4H94.3053V27.24ZM91.769 34.296C91.0045 34.2278 90.293 33.8721 89.7747 33.299C89.2564 32.7259 88.9689 31.977 88.9689 31.2C88.9689 30.4229 89.2564 29.6741 89.7747 29.101C90.293 28.5279 91.0045 28.1722 91.769 28.104C92.1481 28.1237 92.5194 28.22 92.8611 28.3872C93.2028 28.5545 93.508 28.7893 93.7588 29.0778C94.0095 29.3663 94.2006 29.7027 94.321 30.0672C94.4413 30.4316 94.4884 30.8168 94.4594 31.2C94.4917 31.5848 94.4466 31.9723 94.3268 32.339C94.2071 32.7057 94.0151 33.0439 93.7625 33.3333C93.5099 33.6227 93.2019 33.8573 92.8572 34.0227C92.5126 34.1882 92.1383 34.2811 91.7572 34.296H91.769ZM120.664 21H115.366V36H117.582V30.312H120.676C121.307 30.3579 121.942 30.2716 122.539 30.0585C123.136 29.8453 123.684 29.5098 124.147 29.073C124.611 28.6361 124.98 28.1073 125.233 27.5194C125.486 26.9315 125.616 26.2972 125.616 25.656C125.616 25.0148 125.486 24.3805 125.233 23.7926C124.98 23.2047 124.611 22.6758 124.147 22.239C123.684 21.8021 123.136 21.4667 122.539 21.2535C121.942 21.0403 121.307 20.954 120.676 21H120.664ZM120.664 28.2H117.571V23.088H120.711C121.385 23.088 122.032 23.3592 122.509 23.8419C122.986 24.3246 123.253 24.9793 123.253 25.662C123.253 26.3447 122.986 26.9994 122.509 27.4821C122.032 27.9648 121.385 28.236 120.711 28.236L120.664 28.2ZM134.329 26.04C133.522 25.9912 132.719 26.1821 132.018 26.5893C131.316 26.9964 130.748 27.6022 130.382 28.332L132.35 29.16C132.544 28.798 132.837 28.5009 133.195 28.3049C133.553 28.1089 133.959 28.0224 134.365 28.056C134.646 28.0227 134.931 28.0465 135.203 28.126C135.475 28.2054 135.729 28.339 135.95 28.5188C136.17 28.6987 136.354 28.9212 136.488 29.1734C136.623 29.4257 136.707 29.7026 136.735 29.988V30.144C136.023 29.7624 135.229 29.5645 134.424 29.568C132.302 29.568 130.157 30.768 130.157 32.94C130.178 33.4031 130.291 33.8573 130.488 34.2756C130.685 34.694 130.963 35.0681 131.306 35.3757C131.648 35.6834 132.048 35.9184 132.482 36.0668C132.916 36.2153 133.375 36.2742 133.831 36.24C134.389 36.2806 134.948 36.1683 135.448 35.9149C135.949 35.6615 136.373 35.2764 136.676 34.8H136.747V36H138.88V30.228C138.88 27.6 136.913 26.076 134.388 26.076L134.329 26.04ZM134.056 34.26C133.333 34.26 132.326 33.888 132.326 32.988C132.326 31.788 133.582 31.392 134.696 31.392C135.4 31.3744 136.096 31.5485 136.711 31.896C136.637 32.5457 136.334 33.1463 135.857 33.5874C135.38 34.0284 134.761 34.28 134.116 34.296L134.056 34.26ZM146.655 26.4L144.119 32.904H144.048L141.416 26.4H139.046L142.993 35.496L140.741 40.548H143.052L149.12 26.4H146.655ZM126.732 36H128.948V21H126.732V36Z" fill="white"/>
<path d="M49.9084 17.124H49.0314V14.724H49.778C50.1185 14.3587 50.3756 13.9222 50.5312 13.4453C50.6869 12.9684 50.7372 12.4628 50.6788 11.964V8.40002H55.4195V14.712H56.2136V17.112H55.3365V15.6H49.9084V17.124ZM51.5558 12C51.6111 12.968 51.3756 13.9302 50.8803 14.76H54.4358V9.28802H51.5558V12ZM63.301 14.664C62.6081 15.3616 61.6707 15.7532 60.6936 15.7532C59.7165 15.7532 58.779 15.3616 58.0862 14.664C57.4127 13.9422 57.0375 12.9869 57.0375 11.994C57.0375 11.0011 57.4127 10.0458 58.0862 9.32402C58.4277 8.97571 58.8339 8.69927 59.2814 8.51062C59.7289 8.32198 60.2088 8.22486 60.6936 8.22486C61.1783 8.22486 61.6583 8.32198 62.1058 8.51062C62.5533 8.69927 62.9595 8.97571 63.301 9.32402C63.9771 10.0444 64.3541 11.0002 64.3541 11.994C64.3541 12.9878 63.9771 13.9436 63.301 14.664ZM58.7617 14.064C59.2748 14.5814 59.9695 14.8718 60.6936 14.8718C61.4177 14.8718 62.1123 14.5814 62.6254 14.064C63.1318 13.4988 63.4123 12.7631 63.4123 12C63.4123 11.237 63.1318 10.5012 62.6254 9.93602C62.1123 9.41867 61.4177 9.12821 60.6936 9.12821C59.9695 9.12821 59.2748 9.41867 58.7617 9.93602C58.2554 10.5012 57.9749 11.237 57.9749 12C57.9749 12.7631 58.2554 13.4988 58.7617 14.064ZM68.9543 15.756C68.465 15.7659 67.9789 15.6754 67.5251 15.4899C67.0712 15.3045 66.6592 15.028 66.3137 14.6771C65.9682 14.3262 65.6965 13.9081 65.5148 13.448C65.3331 12.9879 65.2453 12.4954 65.2565 12C65.2453 11.5047 65.3331 11.0121 65.5148 10.552C65.6965 10.092 65.9682 9.67388 66.3137 9.32296C66.6592 8.97203 67.0712 8.69553 67.5251 8.51011C67.9789 8.32469 68.465 8.23417 68.9543 8.24402C69.4502 8.23159 69.9425 8.3331 70.3941 8.54094C70.8457 8.74878 71.2449 9.05754 71.5617 9.44402L70.9217 10.068C70.6876 9.76712 70.3858 9.52731 70.0415 9.36865C69.6972 9.20999 69.3203 9.13708 68.9425 9.15602C68.5787 9.14644 68.2168 9.2117 67.8786 9.34783C67.5404 9.48396 67.233 9.68815 66.9751 9.94802C66.4612 10.5166 66.1762 11.2593 66.1762 12.03C66.1762 12.8007 66.4612 13.5435 66.9751 14.112C67.233 14.3719 67.5404 14.5761 67.8786 14.7122C68.2168 14.8483 68.5787 14.9136 68.9425 14.904C69.3596 14.9002 69.7707 14.8024 70.1459 14.6177C70.5211 14.433 70.8509 14.1659 71.1114 13.836L71.7514 14.484C71.4288 14.8802 71.0242 15.1997 70.5662 15.42C70.0603 15.652 69.5096 15.7668 68.9543 15.756ZM75.4728 15.6H74.5603V9.28802H72.5691V8.40002H77.4521V9.28802H75.4728V15.6ZM83.7336 8.40002L81.0432 14.472C80.9355 14.8312 80.7203 15.1477 80.4273 15.3777C80.1344 15.6077 79.7781 15.7399 79.4077 15.756C79.1627 15.7529 78.9208 15.6998 78.6965 15.6L78.9336 14.748C79.0776 14.8329 79.241 14.8784 79.4077 14.88C79.5819 14.8933 79.7558 14.8514 79.9054 14.76C80.0482 14.6376 80.1583 14.4808 80.2254 14.304L80.4862 13.728L78.1158 8.41202H79.1943L80.9484 12.54L82.6551 8.40002H83.7336ZM84.7647 15.6V8.40002H89.9084V15.6H88.9958V9.28802H85.6773V15.6H84.7647ZM91.5321 15.6V8.40002H92.4447V11.484H96.0002V8.40002H96.9128V15.6H96.0002V12.348H92.4447V15.6H91.5321ZM104.368 14.664C103.675 15.3616 102.737 15.7532 101.76 15.7532C100.783 15.7532 99.8457 15.3616 99.1528 14.664C98.4794 13.9422 98.1042 12.9869 98.1042 11.994C98.1042 11.0011 98.4794 10.0458 99.1528 9.32402C99.4944 8.97571 99.9006 8.69927 100.348 8.51062C100.796 8.32198 101.276 8.22486 101.76 8.22486C102.245 8.22486 102.725 8.32198 103.172 8.51062C103.62 8.69927 104.026 8.97571 104.368 9.32402C105.044 10.0444 105.421 11.0002 105.421 11.994C105.421 12.9878 105.044 13.9436 104.368 14.664ZM99.8284 14.064C100.342 14.5814 101.036 14.8718 101.76 14.8718C102.484 14.8718 103.179 14.5814 103.692 14.064C104.198 13.4988 104.479 12.7631 104.479 12C104.479 11.237 104.198 10.5012 103.692 9.93602C103.179 9.41867 102.484 9.12821 101.76 9.12821C101.036 9.12821 100.342 9.41867 99.8284 9.93602C99.322 10.5012 99.0415 11.237 99.0415 12C99.0415 12.7631 99.322 13.4988 99.8284 14.064ZM109.144 15.6V8.40002H111.716C112.25 8.38981 112.767 8.58738 113.162 8.95202C113.36 9.12604 113.518 9.34199 113.624 9.58461C113.731 9.82722 113.783 10.0906 113.778 10.356C113.784 10.6759 113.693 10.9899 113.517 11.256C113.343 11.5145 113.101 11.7183 112.818 11.844C113.162 11.9592 113.463 12.1767 113.683 12.468C113.911 12.762 114.032 13.1263 114.027 13.5C114.033 13.7767 113.979 14.0512 113.868 14.3043C113.758 14.5573 113.593 14.7826 113.387 14.964C112.974 15.3494 112.431 15.5599 111.87 15.552L109.144 15.6ZM110.057 11.484H111.716C111.871 11.4906 112.025 11.4628 112.169 11.4027C112.312 11.3426 112.44 11.2516 112.545 11.136C112.65 11.0397 112.735 10.9229 112.794 10.7927C112.854 10.6625 112.887 10.5216 112.891 10.3782C112.896 10.2349 112.871 10.0921 112.82 9.95838C112.769 9.82468 112.692 9.7028 112.593 9.60002C112.494 9.48659 112.371 9.39661 112.234 9.33647C112.097 9.27633 111.948 9.2475 111.799 9.25202H110.104L110.057 11.484ZM110.057 14.712H111.894C112.054 14.7175 112.214 14.687 112.361 14.6226C112.509 14.5583 112.641 14.4618 112.747 14.34C112.956 14.1206 113.075 13.8288 113.079 13.524C113.079 13.2058 112.954 12.9005 112.732 12.6755C112.509 12.4504 112.208 12.324 111.894 12.324H110.092L110.057 14.712Z" fill="white"/>
<path fill-rule="evenodd" clip-rule="evenodd" d="M60.6936 8.34486C60.2245 8.34486 59.76 8.43885 59.327 8.62141C58.8943 8.80378 58.5016 9.07093 58.1713 9.40751C57.5193 10.1069 57.156 11.0322 57.156 11.994C57.156 12.9557 57.5192 13.8809 58.1711 14.5802C58.8416 15.2547 59.7484 15.6332 60.6936 15.6332C61.6388 15.6332 62.5457 15.2546 63.2162 14.5801C63.8707 13.8822 64.2356 12.9565 64.2356 11.994C64.2356 11.0314 63.8706 10.1056 63.216 9.40763C62.8857 9.071 62.4929 8.8038 62.0602 8.62141C61.6271 8.43885 61.1627 8.34486 60.6936 8.34486ZM59.2358 8.39984C59.6978 8.20511 60.1932 8.10486 60.6936 8.10486C61.194 8.10486 61.6894 8.20511 62.1513 8.39984C62.6133 8.59457 63.0326 8.87993 63.3851 9.23948L63.3869 9.24134C64.084 9.98404 64.4726 10.9695 64.4726 11.994C64.4726 13.0186 64.084 14.004 63.3869 14.7467L63.3846 14.7491C62.6695 15.4691 61.702 15.8732 60.6936 15.8732C59.6851 15.8732 58.7177 15.4691 58.0026 14.7491L58 14.7465C57.3057 14.0024 56.919 13.0176 56.919 11.994C56.919 10.9704 57.3058 9.98566 58 9.24161L58.002 9.23945C58.3546 8.87991 58.7739 8.59457 59.2358 8.39984ZM101.76 8.34486C101.291 8.34486 100.827 8.43885 100.394 8.62141C99.961 8.80376 99.5683 9.0709 99.238 9.40745C98.586 10.1068 98.2227 11.0322 98.2227 11.994C98.2227 12.9557 98.5859 13.8809 99.2377 14.5803C99.9083 15.2547 100.815 15.6332 101.76 15.6332C102.706 15.6332 103.612 15.2546 104.283 14.5801C104.937 13.8821 105.302 12.9564 105.302 11.994C105.302 11.0315 104.937 10.1056 104.283 9.40766C103.952 9.07101 103.56 8.8038 103.127 8.62141C102.694 8.43885 102.229 8.34486 101.76 8.34486ZM100.303 8.39984C100.764 8.20511 101.26 8.10486 101.76 8.10486C102.261 8.10486 102.756 8.20511 103.218 8.39984C103.68 8.59457 104.099 8.87993 104.452 9.23948L104.454 9.24134C105.151 9.98405 105.539 10.9695 105.539 11.994C105.539 13.0186 105.151 14.004 104.454 14.7467L104.451 14.7491C103.736 15.4691 102.769 15.8732 101.76 15.8732C100.752 15.8732 99.7844 15.4691 99.0693 14.7491L99.0667 14.7465C98.3724 14.0024 97.9857 13.0176 97.9857 11.994C97.9857 10.9704 98.3725 9.98566 99.0667 9.24161L99.0687 9.23945C99.4212 8.87991 99.8406 8.59457 100.303 8.39984ZM70.345 8.65019C69.9097 8.44985 69.4353 8.352 68.9573 8.36398L68.952 8.36412C68.4787 8.35459 68.0084 8.44203 67.5694 8.62139C67.1304 8.80075 66.7318 9.06822 66.3976 9.40767C66.0635 9.74713 65.8006 10.1516 65.6248 10.5966C65.4491 11.0416 65.3641 11.5181 65.375 11.9973L65.3752 12.0028C65.3642 12.482 65.4491 12.9584 65.6248 13.4034C65.8006 13.8485 66.0635 14.2529 66.3976 14.5924C66.7318 14.9318 67.1304 15.1993 67.5694 15.3786C68.0084 15.558 68.4787 15.6456 68.952 15.636L68.9543 15.756L68.9566 15.636C69.4939 15.6465 70.0267 15.5355 70.5163 15.3112C70.9258 15.114 71.2911 14.8347 71.5902 14.4905L71.1191 14.0136C70.8622 14.3104 70.5491 14.5526 70.1977 14.7256C69.807 14.918 69.379 15.0199 68.9445 15.024C68.5651 15.0339 68.1875 14.9657 67.8348 14.8237C67.4817 14.6816 67.1608 14.4684 66.8915 14.1971L66.8875 14.1931C66.3537 13.6024 66.0577 12.8307 66.0577 12.03C66.0577 11.2293 66.3538 10.4577 66.8876 9.86701L66.8914 9.86286C67.1607 9.59153 67.4817 9.37845 67.8348 9.23632C68.1865 9.09475 68.5628 9.0266 68.9411 9.03594C69.3363 9.01686 69.7304 9.09347 70.0906 9.25943C70.4124 9.40774 70.6989 9.62356 70.9313 9.89205L71.3988 9.43624C71.1058 9.10303 70.7469 8.83515 70.345 8.65019ZM68.9544 15.876C68.4499 15.8859 67.9486 15.7924 67.4807 15.6012C67.0121 15.4097 66.5865 15.1242 66.2298 14.7618C65.873 14.3994 65.5924 13.9677 65.4047 13.4925C65.2175 13.0183 65.1267 12.5106 65.138 12C65.1267 11.4894 65.2175 10.9817 65.4047 10.5075C65.5924 10.0324 65.873 9.60063 66.2298 9.23824C66.5865 8.87585 67.0121 8.59031 67.4807 8.39883C67.9485 8.20768 68.4497 8.1142 68.954 8.12399C69.467 8.11154 69.976 8.21672 70.4431 8.4317C70.911 8.64704 71.3247 8.96695 71.6529 9.36738L71.7232 9.45314L70.9096 10.2464L70.8286 10.1423C70.6062 9.85641 70.3195 9.6286 69.9924 9.47788C69.6653 9.32715 69.3073 9.25788 68.9483 9.27587L68.9394 9.27632C68.5916 9.26717 68.2456 9.3292 67.9224 9.45934C67.6 9.58913 67.3068 9.78362 67.0606 10.0311C66.5679 10.5773 66.2947 11.2903 66.2947 12.03C66.2947 12.7698 66.5679 13.4828 67.0606 14.0289C67.3068 14.2764 67.6 14.4709 67.9224 14.6007C68.2456 14.7308 68.5916 14.7932 68.9394 14.7841L68.9414 14.784C69.341 14.7804 69.7347 14.6867 70.0941 14.5098C70.4534 14.3328 70.7693 14.0771 71.0188 13.7611L71.1015 13.6563L71.9113 14.4762L71.8428 14.5604C71.5092 14.9701 71.0907 15.3005 70.617 15.5284L70.6151 15.5293C70.0938 15.7684 69.5265 15.8868 68.9544 15.876ZM113.082 9.04063C112.71 8.69671 112.222 8.51037 111.718 8.52L111.716 8.52002H109.262V15.4779L111.868 15.432L111.872 15.432C112.403 15.4395 112.916 15.2404 113.307 14.8758L113.309 14.8734C113.502 14.7035 113.656 14.4926 113.76 14.2557C113.863 14.0188 113.914 13.7617 113.908 13.5027L113.908 13.4982C113.914 13.152 113.801 12.8145 113.59 12.5421L113.589 12.5409C113.384 12.2687 113.102 12.0656 112.781 11.9579L112.488 11.8597L112.77 11.7341C113.033 11.6175 113.257 11.4287 113.419 11.189C113.581 10.9433 113.665 10.6534 113.66 10.3581V10.3537C113.664 10.1058 113.615 9.85989 113.516 9.63335C113.416 9.4068 113.269 9.20514 113.084 9.04265L113.082 9.04063ZM113.241 8.86243C112.824 8.47795 112.278 8.26954 111.715 8.28002H109.025V15.7221L111.868 15.672L111.87 15.672C112.461 15.6798 113.032 15.4585 113.466 15.0534C113.685 14.8606 113.859 14.6214 113.977 14.3528C114.094 14.0844 114.152 13.7931 114.145 13.4996L114.145 13.5018L114.027 13.5L114.145 13.4974L114.145 13.4996C114.151 13.0995 114.021 12.7095 113.777 12.3945C113.596 12.1546 113.362 11.9617 113.097 11.8299C113.301 11.6995 113.478 11.5274 113.615 11.3236L113.616 11.3226C113.804 11.0368 113.902 10.6996 113.897 10.3561L113.897 10.3584L113.778 10.356L113.897 10.3539L113.897 10.3561C113.902 10.0738 113.846 9.79387 113.732 9.53587C113.619 9.27767 113.451 9.04779 113.241 8.86243ZM50.5602 8.28002H55.538V14.592H56.3321V17.232H55.218V15.72H50.0269V17.244H48.9128V14.604H49.7264C50.0378 14.2593 50.2738 13.8516 50.4187 13.4077C50.5689 12.9475 50.6175 12.4595 50.5611 11.9782L50.5602 11.9711V8.28002ZM50.7973 8.52002V11.957C50.8565 12.4709 50.8041 12.9917 50.6438 13.483C50.4827 13.9766 50.2166 14.4283 49.8642 14.8064L49.8291 14.844H49.1499V17.004H49.7899V15.48H55.4551V16.992H56.0951V14.832H55.301V8.52002H50.7973ZM72.4506 8.28002H77.5706V9.40802H75.5914V15.72H74.4417V9.40802H72.4506V8.28002ZM72.6877 8.52002V9.16802H74.6788V15.48H75.3543V9.16802H77.3336V8.52002H72.6877ZM82.5761 8.28002H83.9167L81.1544 14.5143C81.0388 14.8942 80.8103 15.2288 80.5 15.4725C80.1876 15.7177 79.8077 15.8587 79.4128 15.8759L79.4061 15.8762C79.1453 15.8728 78.8877 15.8162 78.6489 15.7099L78.5545 15.6679L78.861 14.5664L78.9932 14.6443C79.1195 14.7188 79.2627 14.7586 79.4088 14.76L79.4166 14.7601C79.5631 14.7713 79.7095 14.7372 79.8361 14.6621C79.9602 14.5537 80.056 14.4159 80.1148 14.2609L80.1175 14.2539L80.356 13.7276L77.9323 8.29202H79.2724L80.9467 12.2325L82.5761 8.28002ZM82.734 8.52002L80.9501 12.8475L79.1163 8.53202H78.2994L80.6164 13.7284L80.3347 14.3507C80.2603 14.5448 80.139 14.717 79.982 14.8516L79.9748 14.8578L79.9666 14.8628C79.7971 14.9663 79.6001 15.0142 79.4027 15C79.2672 14.9982 79.1337 14.9706 79.0091 14.9191L78.8394 15.5291C79.0207 15.5969 79.2122 15.6331 79.4059 15.636C79.7505 15.6203 80.082 15.4969 80.3547 15.2828C80.6283 15.0681 80.8292 14.7726 80.9298 14.4372L80.932 14.4299L83.5505 8.52002H82.734ZM84.6462 8.28002H90.0269V15.72H88.8773V9.40802H85.7958V15.72H84.6462V8.28002ZM84.8832 8.52002V15.48H85.5588V9.16802H89.1143V15.48H89.7899V8.52002H84.8832ZM91.4136 8.28002H92.5632V11.364H95.8817V8.28002H97.0314V15.72H95.8817V12.468H92.5632V15.72H91.4136V8.28002ZM91.6506 8.52002V15.48H92.3262V12.228H96.1188V15.48H96.7943V8.52002H96.1188V11.604H92.3262V8.52002H91.6506ZM58.6781 9.85099C59.2134 9.31125 59.9381 9.00821 60.6936 9.00821C61.4491 9.00821 62.1738 9.31125 62.7091 9.85099L62.7133 9.85529C63.2395 10.4425 63.5308 11.2071 63.5308 12C63.5308 12.7929 63.2394 13.5574 62.7132 14.1446L62.7092 14.1492C62.1739 14.6889 61.4491 14.9918 60.6936 14.9918C59.9381 14.9918 59.2134 14.6888 58.6781 14.149L58.7617 14.064L58.674 14.1446C58.1478 13.5574 57.8564 12.7929 57.8564 12C57.8564 11.2071 58.1478 10.4426 58.674 9.8554L58.6781 9.85099ZM58.8475 13.9811C59.3382 14.4747 60.0018 14.7518 60.6936 14.7518C61.3854 14.7518 62.049 14.4747 62.5397 13.9811C63.025 13.4383 63.2938 12.7323 63.2938 12C63.2938 11.2678 63.025 10.5617 62.5397 10.0189C62.049 9.5253 61.3854 9.24821 60.6936 9.24821C60.0018 9.24821 59.3382 9.5253 58.8475 10.0189C58.3622 10.5617 58.0934 11.2678 58.0934 12C58.0934 12.7323 58.3622 13.4383 58.8475 13.9811ZM99.7448 9.85099C100.28 9.31125 101.005 9.00821 101.76 9.00821C102.516 9.00821 103.24 9.31125 103.776 9.85099L103.78 9.85529C104.306 10.4425 104.597 11.2071 104.597 12C104.597 12.7929 104.306 13.5574 103.78 14.1446L103.776 14.1492C103.241 14.6889 102.516 14.9918 101.76 14.9918C101.005 14.9918 100.28 14.6888 99.7448 14.149L99.8284 14.064L99.7406 14.1446C99.2145 13.5574 98.923 12.7929 98.923 12C98.923 11.2071 99.2145 10.4426 99.7406 9.8554L99.7448 9.85099ZM99.9142 13.9811C100.405 14.4747 101.068 14.7518 101.76 14.7518C102.452 14.7518 103.116 14.4747 103.606 13.9811C104.092 13.4383 104.36 12.7323 104.36 12C104.36 11.2678 104.092 10.5617 103.606 10.0189C103.116 9.52529 102.452 9.24821 101.76 9.24821C101.068 9.24821 100.405 9.52529 99.9142 10.0189C99.4289 10.5617 99.1601 11.2678 99.1601 12C99.1601 12.7323 99.4289 13.4383 99.9142 13.9811ZM111.797 9.13202C111.963 9.12726 112.129 9.15945 112.281 9.22634C112.434 9.29311 112.57 9.39281 112.68 9.51845C112.789 9.63234 112.874 9.76715 112.931 9.91496C112.988 10.0637 113.015 10.2225 113.01 10.382C113.005 10.5414 112.968 10.6982 112.902 10.8431C112.837 10.9862 112.744 11.1148 112.629 11.2213C112.513 11.3478 112.371 11.4475 112.214 11.5136C112.055 11.58 111.885 11.6109 111.713 11.604H109.935L109.988 9.13202H111.797ZM112.187 9.4466C112.066 9.39345 111.934 9.36797 111.802 9.37196L111.799 9.37202H110.22L110.178 11.364H111.721C111.858 11.3698 111.996 11.3453 112.123 11.2919C112.251 11.2384 112.365 11.1575 112.458 11.0548L112.462 11.0508L112.466 11.0471C112.559 10.9616 112.634 10.858 112.687 10.7424C112.74 10.6268 112.769 10.5017 112.773 10.3745C112.777 10.2472 112.755 10.1205 112.71 10.0018C112.664 9.88312 112.596 9.77494 112.508 9.68371L112.504 9.67959C112.416 9.57935 112.308 9.49974 112.187 9.4466ZM51.4373 9.16802H54.5543V14.88H50.6701L50.7788 14.6979C51.2618 13.8889 51.4914 12.9507 51.4375 12.0069L51.4371 12L51.4373 9.16802ZM51.6743 9.40802V11.9966C51.7263 12.9175 51.5214 13.8333 51.0852 14.64H54.3173V9.40802H51.6743ZM109.975 12.204H111.894C112.239 12.204 112.571 12.3431 112.815 12.5906C113.06 12.8382 113.197 13.1739 113.197 13.524L113.197 13.5257C113.193 13.8602 113.063 14.1803 112.834 14.4215C112.716 14.5556 112.571 14.6619 112.408 14.7329C112.245 14.8039 112.069 14.8377 111.892 14.832H109.936L109.975 12.204ZM110.209 12.444L110.177 14.592H111.898C112.041 14.5969 112.183 14.5697 112.314 14.5124C112.446 14.4551 112.563 14.3691 112.658 14.2605L112.662 14.2567C112.849 14.0593 112.956 13.7972 112.96 13.5231C112.96 13.237 112.848 12.9627 112.648 12.7603C112.448 12.5578 112.176 12.444 111.894 12.444H110.209Z" fill="white"/>
<path d="M12.3734 9.04805C11.9871 9.51738 11.7921 10.1182 11.8282 10.7281V37.2721C11.7921 37.8819 11.9871 38.4827 12.3734 38.9521L12.4564 39.0361L27.1408 24.1801V23.8321L12.4564 8.96405L12.3734 9.04805Z" fill="url(#paint0_linear_15_841)"/>
<path d="M31.9999 29.136L27.1406 24.18V23.832L31.9999 18.864L32.1065 18.924L37.9258 22.272C39.5851 23.22 39.5851 24.78 37.9258 25.74L32.1303 29.076L31.9999 29.136Z" fill="url(#paint1_linear_15_841)"/>
<path d="M32.1422 29.064L27.1407 24L12.3733 38.952C12.7115 39.253 13.1429 39.425 13.5931 39.4381C14.0432 39.4513 14.4837 39.3048 14.8385 39.024L32.154 29.064" fill="url(#paint2_linear_15_841)"/>
<path d="M32.1423 18.936L14.8268 8.97602C14.472 8.69524 14.0315 8.54876 13.5813 8.56191C13.1312 8.57506 12.6998 8.747 12.3616 9.04802L27.1408 24L32.1423 18.936Z" fill="url(#paint3_linear_15_841)"/>
<path opacity="0.2" d="M32 28.9561L14.8266 38.8561C14.4844 39.1151 14.0687 39.2551 13.6414 39.2551C13.2142 39.2551 12.7984 39.1151 12.4563 38.8561L12.3733 38.9401L12.4563 39.0241C12.7977 39.2849 13.2137 39.4261 13.6414 39.4261C14.0692 39.4261 14.4852 39.2849 14.8266 39.0241L32.1422 29.0641L32 28.9561Z" fill="black"/>
<path opacity="0.12" d="M12.3734 38.784C11.9871 38.3147 11.7921 37.7138 11.8282 37.104V37.284C11.7921 37.8938 11.9871 38.4947 12.3734 38.964L12.4564 38.88L12.3734 38.784ZM37.926 25.56L32.0001 28.956L32.1067 29.064L37.926 25.728C38.2562 25.5709 38.5396 25.3285 38.7477 25.0251C38.9558 24.7217 39.0812 24.3681 39.1112 24C39.0445 24.3344 38.903 24.649 38.6976 24.9194C38.4921 25.1898 38.2282 25.409 37.926 25.56Z" fill="black"/>
<path opacity="0.25" d="M14.8268 9.14356L37.926 22.4396C38.2282 22.5906 38.4922 22.8097 38.6976 23.0802C38.9031 23.3506 39.0446 23.6651 39.1112 23.9996C39.0812 23.6314 38.9558 23.2778 38.7478 22.9745C38.5397 22.6711 38.2562 22.4286 37.926 22.2716L14.8268 8.97556C13.1675 8.02756 11.8164 8.81956 11.8164 10.7396V10.9196C11.852 8.98756 13.1794 8.19556 14.8268 9.14356Z" fill="white"/>
<defs>
<linearGradient id="paint0_linear_15_841" x1="25.8371" y1="10.4521" x2="5.70266" y2="30.3379" gradientUnits="userSpaceOnUse">
<stop stop-color="#00A0FF"/>
<stop offset="0.01" stop-color="#00A1FF"/>
<stop offset="0.26" stop-color="#00BEFF"/>
<stop offset="0.51" stop-color="#00D2FF"/>
<stop offset="0.76" stop-color="#00DFFF"/>
<stop offset="1" stop-color="#00E3FF"/>
</linearGradient>
<linearGradient id="paint1_linear_15_841" x1="40.0947" y1="24" x2="11.4251" y2="24" gradientUnits="userSpaceOnUse">
<stop stop-color="#FFE000"/>
<stop offset="0.41" stop-color="#FFBD00"/>
<stop offset="0.78" stop-color="#FFA500"/>
<stop offset="1" stop-color="#FF9C00"/>
</linearGradient>
<linearGradient id="paint2_linear_15_841" x1="29.4281" y1="26.76" x2="2.11836" y2="53.7207" gradientUnits="userSpaceOnUse">
<stop stop-color="#FF3A44"/>
<stop offset="1" stop-color="#C31162"/>
</linearGradient>
<linearGradient id="paint3_linear_15_841" x1="8.65194" y1="0.216022" x2="20.843" y2="12.2566" gradientUnits="userSpaceOnUse">
<stop stop-color="#32A071"/>
<stop offset="0.07" stop-color="#2DA771"/>
<stop offset="0.48" stop-color="#15CF74"/>
<stop offset="0.8" stop-color="#06E775"/>
<stop offset="1" stop-color="#00F076"/>
</linearGradient>
</defs>
</svg>
