<svg width="160" height="48" viewBox="0 0 160 48" fill="none" xmlns="http://www.w3.org/2000/svg">
<path d="M154.074 0H5.92593C2.65313 0 0 2.68629 0 6V42C0 45.3137 2.65313 48 5.92593 48H154.074C157.347 48 160 45.3137 160 42V6C160 2.68629 157.347 0 154.074 0Z" fill="black"/>
<path d="M154.074 0.96C155.394 0.96 156.66 1.491 157.594 2.43618C158.527 3.38137 159.052 4.66331 159.052 6V42C159.052 43.3367 158.527 44.6186 157.594 45.5638C156.66 46.509 155.394 47.04 154.074 47.04H5.92593C4.60574 47.04 3.33962 46.509 2.40611 45.5638C1.47259 44.6186 0.948148 43.3367 0.948148 42V6C0.948148 4.66331 1.47259 3.38137 2.40611 2.43618C3.33962 1.491 4.60574 0.96 5.92593 0.96H154.074ZM154.074 0H5.92593C4.35427 0 2.84699 0.632141 1.73566 1.75736C0.624337 2.88258 0 4.4087 0 6V42C0 43.5913 0.624337 45.1174 1.73566 46.2426C2.84699 47.3679 4.35427 48 5.92593 48H154.074C155.646 48 157.153 47.3679 158.264 46.2426C159.376 45.1174 160 43.5913 160 42V6C160 4.4087 159.376 2.88258 158.264 1.75736C157.153 0.632141 155.646 0 154.074 0Z" fill="#A6A6A6"/>
<path fill-rule="evenodd" clip-rule="evenodd" d="M19.0996 8.25C12.7081 8.25 10.3704 10.6166 10.3704 17.0866V30.9133C10.3704 37.3834 12.7081 39.75 19.0996 39.75H32.7481C39.1394 39.75 41.4815 37.3834 41.4815 30.9133V17.0866C41.4815 10.6166 39.1437 8.25 32.7522 8.25H19.0996Z" fill="url(#paint0_linear_15_843)"/>
<path fill-rule="evenodd" clip-rule="evenodd" d="M23.9409 26.5193H25.1899L24.5633 25.0438L23.9409 26.5193ZM23.6333 27.2629L23.2628 28.1214H22.4191L24.2132 24.0003H24.9423L26.7292 28.1214H25.863L25.4972 27.2629H23.6333ZM37.2093 28.1184H38.0247V24H37.2093V28.1184ZM33.9639 26.3492H35.4669V25.5983H33.9639V24.7542H36.1458V24.003H33.1487V28.1212H36.2243V27.37H33.9639V26.3492ZM30.724 26.8358L29.7996 24H29.1249L28.2005 26.8358L27.3008 24.0023H26.4211L27.8409 28.1237H28.5248L29.4507 25.4165L30.3767 28.1237H31.0666L32.4826 24.0023H31.6257L30.724 26.8358ZM21.1744 26.3606C21.1744 27.031 20.8455 27.3893 20.2484 27.3893C19.648 27.3893 19.3175 27.0206 19.3175 26.332V24.0028H18.4911V26.3606C18.4911 27.5204 19.1277 28.1855 20.2372 28.1855C21.3576 28.1855 22 27.5077 22 26.3262V24.0003H21.1744V26.3606ZM16.5194 24.0003H17.3453V28.124H16.5194V26.4492H14.6536V28.124H13.8271V24.0003H14.6536V25.6636H16.5194V24.0003Z" fill="white"/>
<path fill-rule="evenodd" clip-rule="evenodd" d="M25.9259 18.75C23.0665 18.75 20.7407 16.3949 20.7407 13.5H21.4731C21.4731 15.9857 23.4708 18.0082 25.9259 18.0082C28.381 18.0082 30.3787 15.9857 30.3787 13.5H31.1111C31.1111 16.3949 28.7851 18.75 25.9259 18.75Z" fill="white"/>
<path d="M54.6667 23.6941H56.766L62.64 37.5001H59.8667L58.5956 34.3411H52.683L51.4504 37.5001H48.7349L54.6667 23.6941ZM57.7482 32.2351L55.6489 26.6191L53.5112 32.2351H57.7482Z" fill="white"/>
<path d="M65.8959 28.1401V29.4466H65.9537C66.0693 29.2646 66.2169 29.0826 66.3967 28.9006C66.5892 28.7056 66.8204 28.5366 67.09 28.3936C67.3596 28.2376 67.6613 28.1141 67.9952 28.0231C68.3418 27.9191 68.727 27.8671 69.1507 27.8671C69.8055 27.8671 70.409 27.9971 70.9611 28.2571C71.5132 28.5041 71.9883 28.8486 72.3863 29.2906C72.7843 29.7326 73.0925 30.2526 73.3107 30.8506C73.529 31.4486 73.6381 32.0921 73.6381 32.7811C73.6381 33.4701 73.529 34.1201 73.3107 34.7311C73.1053 35.3291 72.8036 35.8556 72.4055 36.3106C72.0204 36.7526 71.5453 37.1101 70.9804 37.3831C70.4283 37.6431 69.7991 37.7731 69.093 37.7731C68.4381 37.7731 67.8347 37.6366 67.2826 37.3636C66.7433 37.0906 66.326 36.7201 66.0307 36.2521H65.9922V42.1801H63.6811V28.1401H65.8959ZM71.2885 32.7811C71.2885 32.4171 71.2307 32.0596 71.1152 31.7086C71.0125 31.3446 70.852 31.0196 70.6337 30.7336C70.4154 30.4476 70.1394 30.2201 69.8055 30.0511C69.4717 29.8691 69.0801 29.7781 68.6307 29.7781C68.207 29.7781 67.8283 29.8691 67.4944 30.0511C67.1606 30.2331 66.8717 30.4671 66.6278 30.7531C66.3967 31.0391 66.2169 31.3641 66.0885 31.7281C65.973 32.0921 65.9152 32.4561 65.9152 32.8201C65.9152 33.1841 65.973 33.5481 66.0885 33.9121C66.2169 34.2631 66.3967 34.5816 66.6278 34.8676C66.8717 35.1536 67.1606 35.3876 67.4944 35.5696C67.8283 35.7386 68.207 35.8231 68.6307 35.8231C69.0801 35.8231 69.4717 35.7321 69.8055 35.5501C70.1394 35.3681 70.4154 35.1341 70.6337 34.8481C70.852 34.5621 71.0125 34.2371 71.1152 33.8731C71.2307 33.5091 71.2885 33.1451 71.2885 32.7811Z" fill="white"/>
<path d="M77.8908 28.1401V29.4466H77.9486C78.0642 29.2646 78.2118 29.0826 78.3916 28.9006C78.5842 28.7056 78.8153 28.5366 79.0849 28.3936C79.3545 28.2376 79.6563 28.1141 79.9901 28.0231C80.3367 27.9191 80.7219 27.8671 81.1456 27.8671C81.8005 27.8671 82.4039 27.9971 82.956 28.2571C83.5081 28.5041 83.9832 28.8486 84.3812 29.2906C84.7792 29.7326 85.0874 30.2526 85.3056 30.8506C85.5239 31.4486 85.633 32.0921 85.633 32.7811C85.633 33.4701 85.5239 34.1201 85.3056 34.7311C85.1002 35.3291 84.7985 35.8556 84.4005 36.3106C84.0153 36.7526 83.5402 37.1101 82.9753 37.3831C82.4232 37.6431 81.794 37.7731 81.0879 37.7731C80.433 37.7731 79.8296 37.6366 79.2775 37.3636C78.7382 37.0906 78.3209 36.7201 78.0256 36.2521H77.9871V42.1801H75.676V28.1401H77.8908ZM83.2834 32.7811C83.2834 32.4171 83.2256 32.0596 83.1101 31.7086C83.0074 31.3446 82.8469 31.0196 82.6286 30.7336C82.4103 30.4476 82.1343 30.2201 81.8005 30.0511C81.4666 29.8691 81.075 29.7781 80.6256 29.7781C80.2019 29.7781 79.8232 29.8691 79.4893 30.0511C79.1555 30.2331 78.8666 30.4671 78.6227 30.7531C78.3916 31.0391 78.2118 31.3641 78.0834 31.7281C77.9679 32.0921 77.9101 32.4561 77.9101 32.8201C77.9101 33.1841 77.9679 33.5481 78.0834 33.9121C78.2118 34.2631 78.3916 34.5816 78.6227 34.8676C78.8666 35.1536 79.1555 35.3876 79.4893 35.5696C79.8232 35.7386 80.2019 35.8231 80.6256 35.8231C81.075 35.8231 81.4666 35.7321 81.8005 35.5501C82.1343 35.3681 82.4103 35.1341 82.6286 34.8481C82.8469 34.5621 83.0074 34.2371 83.1101 33.8731C83.2256 33.5091 83.2834 33.1451 83.2834 32.7811Z" fill="white"/>
<path d="M99.7272 36.7786C99.0339 37.1166 98.2699 37.3766 97.4354 37.5586C96.6136 37.7536 95.6635 37.8511 94.585 37.8511C93.4808 37.8511 92.4729 37.6756 91.5613 37.3246C90.6497 36.9606 89.8665 36.4601 89.2117 35.8231C88.5568 35.1731 88.0433 34.4061 87.6709 33.5221C87.3114 32.6251 87.1317 31.6371 87.1317 30.5581C87.1317 29.4531 87.3178 28.4586 87.6902 27.5746C88.0754 26.6776 88.5954 25.9171 89.2502 25.2931C89.9178 24.6691 90.701 24.1881 91.5998 23.8501C92.4986 23.5121 93.4744 23.3431 94.5272 23.3431C95.6186 23.3431 96.6136 23.5056 97.5124 23.8306C98.424 24.1426 99.1559 24.5586 99.708 25.0786L98.0324 26.9116C97.6857 26.5216 97.1978 26.1901 96.5687 25.9171C95.9524 25.6441 95.2783 25.5076 94.5465 25.5076C93.8275 25.5076 93.1726 25.6376 92.582 25.8976C92.0042 26.1576 91.5099 26.5151 91.0991 26.9701C90.6882 27.4251 90.3672 27.9581 90.1361 28.5691C89.9178 29.1801 89.8087 29.8431 89.8087 30.5581C89.8087 31.2991 89.9178 31.9816 90.1361 32.6056C90.3672 33.2166 90.6882 33.7496 91.0991 34.2046C91.5228 34.6596 92.0299 35.0171 92.6205 35.2771C93.224 35.5241 93.9045 35.6476 94.662 35.6476C95.702 35.6476 96.6072 35.4851 97.3776 35.1601V31.6501H94.508V29.6221H99.7272V36.7786Z" fill="white"/>
<path d="M108.113 36.3106H108.056C107.825 36.7266 107.452 37.0711 106.939 37.3441C106.425 37.6041 105.841 37.7341 105.186 37.7341C104.814 37.7341 104.422 37.6821 104.011 37.5781C103.613 37.4871 103.241 37.3311 102.894 37.1101C102.56 36.8761 102.278 36.5771 102.047 36.2131C101.828 35.8361 101.719 35.3746 101.719 34.8286C101.719 34.1266 101.912 33.5676 102.297 33.1516C102.695 32.7356 103.202 32.4171 103.819 32.1961C104.435 31.9751 105.115 31.8321 105.86 31.7671C106.618 31.6891 107.356 31.6501 108.075 31.6501V31.4161C108.075 30.8311 107.863 30.4021 107.439 30.1291C107.028 29.8431 106.534 29.7001 105.956 29.7001C105.468 29.7001 105 29.8041 104.55 30.0121C104.101 30.2201 103.729 30.4736 103.433 30.7726L102.239 29.3491C102.766 28.8551 103.369 28.4846 104.05 28.2376C104.743 27.9906 105.443 27.8671 106.149 27.8671C106.971 27.8671 107.645 27.9841 108.171 28.2181C108.71 28.4521 109.134 28.7576 109.442 29.1346C109.75 29.5116 109.962 29.9341 110.078 30.4021C110.206 30.8701 110.27 31.3381 110.27 31.8061V37.5001H108.113V36.3106ZM108.075 33.2296H107.555C107.183 33.2296 106.791 33.2491 106.38 33.2881C105.969 33.3141 105.59 33.3856 105.244 33.5026C104.897 33.6066 104.608 33.7626 104.377 33.9706C104.146 34.1656 104.03 34.4386 104.03 34.7896C104.03 35.0106 104.075 35.1991 104.165 35.3551C104.268 35.4981 104.396 35.6151 104.55 35.7061C104.705 35.7971 104.878 35.8621 105.07 35.9011C105.263 35.9401 105.456 35.9596 105.648 35.9596C106.444 35.9596 107.048 35.7451 107.459 35.3161C107.869 34.8871 108.075 34.3021 108.075 33.5611V33.2296Z" fill="white"/>
<path d="M112.809 22.7581H115.12V37.5001H112.809V22.7581Z" fill="white"/>
<path d="M117.77 22.7581H120.081V37.5001H117.77V22.7581Z" fill="white"/>
<path d="M129.202 31.8841C129.202 31.5851 129.157 31.2991 129.067 31.0261C128.99 30.7531 128.861 30.5126 128.682 30.3046C128.502 30.0966 128.271 29.9341 127.988 29.8171C127.719 29.6871 127.398 29.6221 127.025 29.6221C126.332 29.6221 125.741 29.8366 125.253 30.2656C124.778 30.6816 124.515 31.2211 124.464 31.8841H129.202ZM131.513 32.9371C131.513 33.0411 131.513 33.1451 131.513 33.2491C131.513 33.3531 131.506 33.4571 131.493 33.5611H124.464C124.489 33.8991 124.573 34.2111 124.714 34.4971C124.868 34.7701 125.067 35.0106 125.311 35.2186C125.555 35.4136 125.831 35.5696 126.139 35.6866C126.447 35.8036 126.768 35.8621 127.102 35.8621C127.68 35.8621 128.168 35.7581 128.566 35.5501C128.964 35.3291 129.291 35.0301 129.548 34.6531L131.089 35.9011C130.177 37.1491 128.855 37.7731 127.122 37.7731C126.403 37.7731 125.741 37.6626 125.138 37.4416C124.534 37.2076 124.008 36.8826 123.559 36.4666C123.122 36.0506 122.775 35.5436 122.519 34.9456C122.275 34.3346 122.153 33.6456 122.153 32.8786C122.153 32.1246 122.275 31.4421 122.519 30.8311C122.775 30.2071 123.122 29.6806 123.559 29.2516C123.995 28.8096 124.509 28.4716 125.099 28.2376C125.703 27.9906 126.351 27.8671 127.045 27.8671C127.686 27.8671 128.277 27.9776 128.816 28.1986C129.368 28.4066 129.844 28.7251 130.242 29.1541C130.64 29.5701 130.948 30.0966 131.166 30.7336C131.397 31.3576 131.513 32.0921 131.513 32.9371Z" fill="white"/>
<path d="M133.558 28.1401H135.773V29.7001H135.812C136.068 29.1541 136.428 28.7121 136.89 28.3741C137.352 28.0361 137.892 27.8671 138.508 27.8671C138.598 27.8671 138.694 27.8736 138.797 27.8866C138.9 27.8866 138.989 27.8996 139.067 27.9256V30.0706C138.912 30.0316 138.778 30.0056 138.662 29.9926C138.559 29.9796 138.457 29.9731 138.354 29.9731C137.827 29.9731 137.404 30.0706 137.083 30.2656C136.762 30.4606 136.511 30.6946 136.332 30.9676C136.152 31.2406 136.03 31.5201 135.966 31.8061C135.902 32.0921 135.869 32.3196 135.869 32.4886V37.5001H133.558V28.1401Z" fill="white"/>
<path d="M138.994 28.1401H141.556L144.137 34.9456H144.175L146.467 28.1401H148.874L144.503 39.5086C144.336 39.9376 144.156 40.3146 143.963 40.6396C143.771 40.9776 143.54 41.2571 143.27 41.4781C143 41.7121 142.679 41.8876 142.307 42.0046C141.948 42.1216 141.511 42.1801 140.997 42.1801C140.805 42.1801 140.606 42.1671 140.4 42.1411C140.208 42.1281 140.009 42.0956 139.803 42.0436L139.996 40.0156C140.15 40.0676 140.298 40.1001 140.439 40.1131C140.593 40.1391 140.734 40.1521 140.863 40.1521C141.107 40.1521 141.312 40.1196 141.479 40.0546C141.646 40.0026 141.787 39.9116 141.903 39.7816C142.018 39.6646 142.121 39.5151 142.211 39.3331C142.301 39.1511 142.397 38.9366 142.5 38.6896L142.962 37.5001L138.994 28.1401Z" fill="white"/>
<path d="M57.2857 17.6289H55.8968V15.5312H50.347V17.6289H48.935L48.8887 14.3477H49.5658C49.9014 14.0195 50.1695 13.543 50.3702 12.918C50.5708 12.2891 50.7 11.5781 50.7579 10.7852L50.9778 7H56.2903V14.3477H57.3609L57.2857 17.6289ZM51.2208 14.3477H54.832V8.19531H52.3725L52.2336 10.5977C52.1294 12.2031 51.7918 13.4531 51.2208 14.3477Z" fill="white"/>
<path d="M58.0611 12.3027C58.0611 11.6816 58.1827 11.123 58.4257 10.627C58.6688 10.127 59.0102 9.74414 59.45 9.47852C59.8898 9.20898 60.3952 9.07422 60.9662 9.07422C61.8111 9.07422 62.4959 9.34961 63.0206 9.90039C63.5492 10.4512 63.8347 11.1816 63.8771 12.0918L63.8829 12.4258C63.8829 13.0508 63.7633 13.6094 63.5241 14.1016C63.2887 14.5938 62.9492 14.9746 62.5056 15.2441C62.0658 15.5137 61.5565 15.6484 60.9778 15.6484C60.0943 15.6484 59.3864 15.3516 58.8539 14.7578C58.3254 14.1602 58.0611 13.3652 58.0611 12.373V12.3027ZM59.4674 12.4258C59.4674 13.0781 59.6005 13.5898 59.8667 13.9609C60.1329 14.3281 60.5033 14.5117 60.9778 14.5117C61.4523 14.5117 61.8208 14.3242 62.0831 13.9492C62.3493 13.5742 62.4824 13.0254 62.4824 12.3027C62.4824 11.6621 62.3455 11.1543 62.0715 10.7793C61.8015 10.4043 61.433 10.2168 60.9662 10.2168C60.5071 10.2168 60.1425 10.4023 59.8725 10.7734C59.6024 11.1406 59.4674 11.6914 59.4674 12.4258Z" fill="white"/>
<path d="M67.6445 14.5117C67.9955 14.5117 68.2868 14.4082 68.5183 14.2012C68.7498 13.9941 68.8732 13.7383 68.8887 13.4336H70.2139C70.1985 13.8281 70.0769 14.1973 69.8493 14.541C69.6217 14.8809 69.3131 15.1504 68.9234 15.3496C68.5337 15.5488 68.1132 15.6484 67.6618 15.6484C66.786 15.6484 66.0916 15.3613 65.5785 14.7871C65.0654 14.2129 64.8088 13.4199 64.8088 12.4082V12.2617C64.8088 11.2969 65.0634 10.5254 65.5727 9.94727C66.082 9.36523 66.7764 9.07422 67.656 9.07422C68.4006 9.07422 69.0063 9.29492 69.4732 9.73633C69.9438 10.1738 70.1908 10.75 70.2139 11.4648H68.8887C68.8732 11.1016 68.7498 10.8027 68.5183 10.5684C68.2907 10.334 67.9994 10.2168 67.6445 10.2168C67.1892 10.2168 66.8381 10.3848 66.5912 10.7207C66.3443 11.0527 66.2189 11.5586 66.2151 12.2383V12.4668C66.2151 13.1543 66.3366 13.668 66.5796 14.0078C66.8266 14.3438 67.1815 14.5117 67.6445 14.5117Z" fill="white"/>
<path d="M76.2035 10.3223H74.1722V15.5312H72.766V10.3223H70.7579V9.19141H76.2035V10.3223Z" fill="white"/>
<path d="M79.4037 13.4922L80.6769 9.19141H82.1757L79.6873 16.4922C79.3053 17.5586 78.6572 18.0918 77.7428 18.0918C77.5384 18.0918 77.3127 18.0566 77.0658 17.9863V16.8848L77.332 16.9023C77.6869 16.9023 77.9531 16.8359 78.1306 16.7031C78.3119 16.5742 78.4546 16.3555 78.5588 16.0469L78.7614 15.502L76.5623 9.19141H78.0785L79.4037 13.4922Z" fill="white"/>
<path d="M88.2984 15.5312H86.8921V10.3398H84.45V15.5312H83.0438V9.19141H88.2984V15.5312Z" fill="white"/>
<path d="M95.0982 15.5312H93.6919V12.9707H91.2556V15.5312H89.8493V9.19141H91.2556V11.834H93.6919V9.19141H95.0982V15.5312Z" fill="white"/>
<path d="M96.3366 12.3027C96.3366 11.6816 96.4581 11.123 96.7012 10.627C96.9442 10.127 97.2857 9.74414 97.7255 9.47852C98.1653 9.20898 98.6707 9.07422 99.2417 9.07422C100.087 9.07422 100.771 9.34961 101.296 9.90039C101.825 10.4512 102.11 11.1816 102.153 12.0918L102.158 12.4258C102.158 13.0508 102.039 13.6094 101.8 14.1016C101.564 14.5938 101.225 14.9746 100.781 15.2441C100.341 15.5137 99.832 15.6484 99.2533 15.6484C98.3698 15.6484 97.6618 15.3516 97.1294 14.7578C96.6009 14.1602 96.3366 13.3652 96.3366 12.373V12.3027ZM97.7428 12.4258C97.7428 13.0781 97.8759 13.5898 98.1421 13.9609C98.4083 14.3281 98.7787 14.5117 99.2533 14.5117C99.7278 14.5117 100.096 14.3242 100.359 13.9492C100.625 13.5742 100.758 13.0254 100.758 12.3027C100.758 11.6621 100.621 11.1543 100.347 10.7793C100.077 10.4043 99.7085 10.2168 99.2417 10.2168C98.7826 10.2168 98.418 10.4023 98.1479 10.7734C97.8779 11.1406 97.7428 11.6914 97.7428 12.4258Z" fill="white"/>
<path d="M106.406 15.5312V9.19141H108.947C109.803 9.19141 110.455 9.34375 110.903 9.64844C111.35 9.94922 111.574 10.3828 111.574 10.9492C111.574 11.2422 111.483 11.5059 111.302 11.7402C111.124 11.9707 110.86 12.1484 110.509 12.2734C110.918 12.3594 111.242 12.5332 111.481 12.7949C111.72 13.0566 111.84 13.3652 111.84 13.7207C111.84 14.3105 111.624 14.7598 111.192 15.0684C110.764 15.377 110.146 15.5312 109.34 15.5312H106.406ZM107.812 12.8301V14.4062H109.352C110.073 14.4062 110.434 14.1445 110.434 13.6211C110.434 13.0938 110.067 12.8301 109.334 12.8301H107.812ZM107.812 11.8105H108.97C109.768 11.8105 110.168 11.5723 110.168 11.0957C110.168 10.5957 109.79 10.3379 109.033 10.3223H107.812V11.8105Z" fill="white"/>
<defs>
<linearGradient id="paint0_linear_15_843" x1="25.9259" y1="8.25" x2="25.9259" y2="39.75" gradientUnits="userSpaceOnUse">
<stop stop-color="#FB6361"/>
<stop offset="1" stop-color="#ED3E45"/>
</linearGradient>
</defs>
</svg>
