<svg width="55" height="17" viewBox="0 0 55 17" fill="none" xmlns="http://www.w3.org/2000/svg">
<path d="M24.0406 16.6415H19.6149L22.3831 0.775269H26.8086L24.0406 16.6415Z" fill="#666870"/>
<path d="M40.0841 1.16334C39.2111 0.842312 37.8265 0.487854 36.1145 0.487854C31.7439 0.487854 28.6662 2.64825 28.6473 5.73696C28.611 8.01581 30.8509 9.28154 32.5261 10.0414C34.2384 10.8178 34.8204 11.3246 34.8204 12.0167C34.803 13.0796 33.4368 13.5696 32.1626 13.5696C30.3956 13.5696 29.4489 13.317 28.0101 12.7256L27.4273 12.4721L26.808 16.0337C27.846 16.4721 29.7584 16.8611 31.7439 16.8781C36.3877 16.8781 39.411 14.7512 39.4468 11.4597C39.4645 9.6535 38.2818 8.26954 35.7319 7.13864C34.1839 6.41268 33.2359 5.92317 33.2359 5.18038C33.2541 4.50511 34.0377 3.81347 35.7851 3.81347C37.2239 3.7796 38.281 4.10018 39.0819 4.42099L39.4822 4.58946L40.0841 1.16334Z" fill="#666870"/>
<path d="M45.9663 11.0207C46.3308 10.1092 47.7332 6.58142 47.7332 6.58142C47.7148 6.61529 48.097 5.6531 48.3155 5.06241L48.6248 6.42954C48.6248 6.42954 49.4629 10.2274 49.6449 11.0207C48.9532 11.0207 46.8404 11.0207 45.9663 11.0207ZM51.4293 0.775269H48.006C46.9503 0.775269 46.1483 1.06198 45.6928 2.0917L39.1189 16.6413H43.7627C43.7627 16.6413 44.5272 14.683 44.6916 14.2613C45.201 14.2613 49.7185 14.2613 50.3739 14.2613C50.5009 14.8183 50.902 16.6413 50.902 16.6413H54.9998L51.4293 0.775269Z" fill="#666870"/>
<path d="M15.9184 0.775269L11.5841 11.5945L11.1105 9.40025C10.3092 6.86835 7.79607 4.11749 4.99158 2.74969L8.96162 16.6247H13.6417L20.5983 0.775269H15.9184Z" fill="#666870"/>
<path d="M7.55919 0.775269H0.438569L0.365723 1.09585C5.92025 2.4125 9.5989 5.58624 11.1103 9.40092L9.56236 2.10897C9.30751 1.09563 8.52435 0.808695 7.55919 0.775269Z" fill="#C3C0C0"/>
</svg>
