<svg width="16" height="13" viewBox="0 0 16 13" fill="none" xmlns="http://www.w3.org/2000/svg">
<path d="M1.675 5.45297C5.61205 3.66542 8.23736 2.48696 9.55095 1.91759C13.3015 0.291912 14.0808 0.00951475 14.5888 9.04029e-05C14.7005 -0.00186109 14.9503 0.0269923 15.1121 0.163819C15.2487 0.279352 15.2863 0.435421 15.3043 0.544959C15.3223 0.654498 15.3447 0.904028 15.3269 1.099C15.1237 3.32443 14.2442 8.72496 13.7968 11.2175C13.6075 12.2722 13.2347 12.6258 12.8739 12.6604C12.0896 12.7356 11.494 12.1203 10.7344 11.6014C9.5458 10.7894 8.8743 10.2839 7.72052 9.49158C6.38714 8.57589 7.25152 8.07261 8.01141 7.25012C8.21028 7.03486 11.6658 3.75943 11.7327 3.4623C11.7411 3.42514 11.7488 3.28662 11.6698 3.21347C11.5909 3.14033 11.4743 3.16534 11.3902 3.18523C11.271 3.21343 9.37215 4.52136 5.69365 7.10903C5.15466 7.49472 4.66647 7.68265 4.22906 7.6728C3.74685 7.66194 2.81928 7.38867 2.12973 7.15508C1.28397 6.86858 0.611768 6.71711 0.670301 6.23053C0.700789 5.9771 1.03569 5.71791 1.675 5.45297Z" fill="#F4F4F5"/>
</svg>
