<svg width="18" height="12" viewBox="0 0 18 12" fill="none" xmlns="http://www.w3.org/2000/svg">
<path fill-rule="evenodd" clip-rule="evenodd" d="M16.8702 1.46127C16.985 1.05149 16.8702 0.750305 16.3243 0.750305H14.5192C14.0602 0.750305 13.8487 1.01046 13.734 1.29741C13.734 1.29741 12.8159 3.69486 11.5155 5.25218C11.0948 5.70299 10.9035 5.84626 10.674 5.84626C10.5593 5.84626 10.3932 5.70299 10.3932 5.29321V1.46127C10.3932 0.969424 10.26 0.750305 9.87747 0.750305H7.04087C6.75412 0.750305 6.5816 0.978542 6.5816 1.1949C6.5816 1.66118 7.2317 1.76867 7.29875 3.08006V5.92846C7.29875 6.55294 7.19353 6.66623 6.96403 6.66623C6.3521 6.66623 4.86365 4.25786 3.9807 1.5023C3.80767 0.966661 3.63412 0.750305 3.17278 0.750305H1.36767C0.851928 0.750305 0.748779 1.01046 0.748779 1.29741C0.748779 1.8097 1.36084 4.3507 3.59827 7.71125C5.09007 10.0061 7.19147 11.2503 9.10386 11.2503C10.2514 11.2503 10.3932 10.974 10.3932 10.498V8.76346C10.3932 8.21083 10.5019 8.10058 10.8651 8.10058C11.1331 8.10058 11.5919 8.24399 12.663 9.3505C13.8869 10.6618 14.0885 11.2503 14.7771 11.2503H16.5822C17.0979 11.2503 17.3558 10.974 17.207 10.4287C17.0443 9.88517 16.4599 9.09684 15.6845 8.16206C15.2638 7.62919 14.6326 7.05542 14.4416 6.7686C14.1738 6.39972 14.2502 6.23586 14.4416 5.90815C14.4416 5.90815 16.6407 2.5885 16.8702 1.4614V1.46127Z" fill="#F4F4F5"/>
</svg>
