<svg width="18" height="18" viewBox="0 0 18 18" fill="none" xmlns="http://www.w3.org/2000/svg">
<path d="M17.0915 4.94955C16.897 4.22665 16.327 3.65682 15.6043 3.46216C14.2837 3.10077 9.00154 3.10077 9.00154 3.10077C9.00154 3.10077 3.7195 3.10077 2.39896 3.44838C1.69009 3.64292 1.10623 4.22678 0.911693 4.94955C0.564209 6.26997 0.564209 9.00838 0.564209 9.00838C0.564209 9.00838 0.564209 11.7606 0.911693 13.0672C1.10636 13.79 1.67618 14.3599 2.39909 14.5546C3.73341 14.916 9.00167 14.916 9.00167 14.916C9.00167 14.916 14.2837 14.916 15.6043 14.5684C16.3272 14.3739 16.897 13.8039 17.0917 13.0811C17.4391 11.7606 17.4391 9.02229 17.4391 9.02229C17.4391 9.02229 17.453 6.26997 17.0915 4.94955Z" fill="#F4F4F5"/>
<path d="M7.32129 11.538L11.7137 9.00812L7.32129 6.47827V11.538Z" fill="black"/>
</svg>
